<mxfile host="app.diagrams.net" agent="Mozilla/5.0 (Macintosh; Intel Mac OS X 10_15_7) AppleWebKit/605.1.15 (KHTML, like Gecko) Version/17.6 Safari/605.1.15" version="26.0.5">
  <diagram name="Seite-1" id="fxJKZWlCCIAiSNxTkQP0">
    <mxGraphModel dx="794" dy="499" grid="0" gridSize="10" guides="1" tooltips="1" connect="1" arrows="1" fold="1" page="1" pageScale="1" pageWidth="827" pageHeight="1169" math="0" shadow="0">
      <root>
        <mxCell id="0" />
        <mxCell id="1" parent="0" />
        <mxCell id="rZGewC-Qt5ic17o-jG2J-1" value="&amp;nbsp;wiederhole 4 mal" style="rounded=0;whiteSpace=wrap;html=1;align=left;verticalAlign=top;" vertex="1" parent="1">
          <mxGeometry x="256" y="187" width="179" height="77" as="geometry" />
        </mxCell>
        <mxCell id="rZGewC-Qt5ic17o-jG2J-2" value="&amp;nbsp;gehe 10 Schritte" style="rounded=0;whiteSpace=wrap;html=1;align=left;verticalAlign=top;" vertex="1" parent="1">
          <mxGeometry x="292" y="212" width="143" height="26" as="geometry" />
        </mxCell>
        <mxCell id="rZGewC-Qt5ic17o-jG2J-3" value="&amp;nbsp;drehe 90Â° nach links" style="rounded=0;whiteSpace=wrap;html=1;align=left;verticalAlign=top;" vertex="1" parent="1">
          <mxGeometry x="292" y="238" width="143" height="26" as="geometry" />
        </mxCell>
        <mxCell id="rZGewC-Qt5ic17o-jG2J-4" value="" style="rounded=0;whiteSpace=wrap;html=1;align=left;verticalAlign=top;" vertex="1" parent="1">
          <mxGeometry x="256" y="342" width="250" height="51" as="geometry" />
        </mxCell>
        <mxCell id="rZGewC-Qt5ic17o-jG2J-5" value="" style="rounded=0;whiteSpace=wrap;html=1;align=left;verticalAlign=top;" vertex="1" parent="1">
          <mxGeometry x="292" y="367" width="214" height="26" as="geometry" />
        </mxCell>
        <mxCell id="rZGewC-Qt5ic17o-jG2J-7" value="" style="rounded=0;whiteSpace=wrap;html=1;align=left;verticalAlign=top;" vertex="1" parent="1">
          <mxGeometry x="256" y="318" width="250" height="25" as="geometry" />
        </mxCell>
        <mxCell id="rZGewC-Qt5ic17o-jG2J-8" value="" style="rounded=0;whiteSpace=wrap;html=1;align=left;verticalAlign=top;" vertex="1" parent="1">
          <mxGeometry x="256" y="293" width="250" height="25" as="geometry" />
        </mxCell>
        <mxCell id="rZGewC-Qt5ic17o-jG2J-9" value="" style="rounded=0;whiteSpace=wrap;html=1;align=left;verticalAlign=top;" vertex="1" parent="1">
          <mxGeometry x="256" y="393" width="250" height="25" as="geometry" />
        </mxCell>
      </root>
    </mxGraphModel>
  </diagram>
</mxfile>
